<svg width="256" height="256" viewBox="0 0 256 256" fill="none" xmlns="http://www.w3.org/2000/svg">
<g clip-path="url(#clip0_1_11)">
<rect width="256" height="256" fill="white"/>
<g clip-path="url(#clip1_1_11)">
<path d="M86.3429 167.558H84.8231V168.82H86.3429V167.558Z" fill="#002837"/>
<path d="M39.4317 167.558H37.9119V168.82H39.4317V167.558Z" fill="#002837"/>
<path d="M98.5639 167.558H97.0442V168.82H98.5639V167.558Z" fill="#002837"/>
<path d="M185.189 149.114H183.669V150.376H185.189V149.114Z" fill="#002837"/>
<path d="M123.521 110.99H118.437V115.21H123.521V110.99Z" fill="#002837"/>
<path d="M205.525 110.99H200.441V115.21H205.525V110.99Z" fill="#002837"/>
<path d="M92.9936 103.458V80.6676H108.211C112.346 80.6676 114.786 82.9466 114.786 86.5182C114.786 89.3415 113.227 90.9062 110.549 91.5185V91.9947C113.362 92.5049 115.193 94.3758 115.193 97.2331C115.193 101.009 112.82 103.458 108.211 103.458L92.9936 103.458ZM98.5518 89.4776H106.584C108.313 89.4776 109.126 88.9673 109.126 87.4366C109.126 85.906 108.313 85.3617 106.584 85.3617H98.5518V89.4776ZM98.5518 98.7637H106.686C108.618 98.7637 109.533 98.1855 109.533 96.4847C109.533 94.784 108.618 94.1717 106.686 94.1717H98.5518V98.7637Z" fill="#002837"/>
<path d="M123.453 103.458H118.437V80.6676H123.453V103.458Z" fill="#002837"/>
<path d="M145.744 86.4502V103.458H141.067L140.728 101.315H140.389C139.237 102.812 137.204 103.968 134.662 103.968C130.086 103.968 127.036 101.315 127.036 95.7364V86.4502H132.12V94.988C132.12 98.1515 133.035 99.6141 136.017 99.6141C138.763 99.6141 140.66 98.0154 140.66 94.954V86.4502H145.744Z" fill="#002837"/>
<path d="M159.054 85.94C165.29 85.94 169.459 89.8518 168.951 96.1106H154.208C154.581 98.3216 156.445 99.7502 159.088 99.7502C161.427 99.7502 162.986 98.7978 163.664 97.2331H169.052C168.103 101.281 164.308 103.968 159.088 103.968C153.089 103.968 148.989 100.328 148.989 94.9541C148.989 89.5796 153.123 85.94 159.054 85.94ZM163.494 92.8451C163.155 91.1443 161.461 90.0899 159.122 90.0899C156.784 90.0899 154.682 91.1443 154.343 92.8451H163.494Z" fill="#002837"/>
<path d="M92.9936 133.859V111.068H108.211C112.346 111.068 114.786 113.347 114.786 116.919C114.786 119.742 113.227 121.307 110.549 121.919V122.396C113.362 122.906 115.193 124.777 115.193 127.634C115.193 131.41 112.82 133.859 108.211 133.859L92.9936 133.859ZM98.5518 119.878H106.584C108.313 119.878 109.126 119.368 109.126 117.837C109.126 116.307 108.313 115.763 106.584 115.763H98.5518V119.878ZM98.5518 129.165H106.686C108.618 129.165 109.533 128.586 109.533 126.886C109.533 125.185 108.618 124.573 106.686 124.573H98.5518V129.165Z" fill="#002837"/>
<path d="M123.521 133.859H118.437V116.851H123.521V133.859Z" fill="#002837"/>
<path d="M132.391 133.859H127.375V111.068H132.391V133.859Z" fill="#002837"/>
<path d="M141.091 133.859H136.075V111.068H141.091V133.859Z" fill="#002837"/>
<path d="M166.864 116.851H172.253L175.134 129.709H175.472L179.167 116.851H185.471L189.165 129.709H189.504L192.384 116.851H197.773L192.927 133.859H185.877L182.319 121.783L178.76 133.859H171.711L166.864 116.851Z" fill="#002837"/>
<path d="M205.525 133.859H200.441V116.851H205.525V133.859Z" fill="#002837"/>
<path d="M217.547 116.341C220.36 116.341 222.462 117.463 223.614 118.926H223.953L224.292 116.851H228.969V132.124C228.969 137.464 225.173 140.662 218.937 140.662C213.48 140.662 209.413 137.906 209.04 133.927H214.124C214.463 135.559 216.124 136.58 218.937 136.58C222.394 136.58 223.885 135.253 223.885 132.124V130.695H223.546C222.394 132.158 220.36 133.28 217.547 133.28C212.633 133.28 208.769 129.811 208.769 124.811C208.769 119.81 212.633 116.341 217.547 116.341ZM218.971 129.097C222.19 129.097 223.953 127.124 223.953 124.811C223.953 122.498 222.19 120.525 218.971 120.525C215.751 120.525 213.989 122.293 213.989 124.811C213.989 127.328 215.751 129.097 218.971 129.097Z" fill="#002837"/>
<path d="M33.7391 118.455C41.7919 118.455 50.551 118.04 57.9288 113.505C65.7743 108.682 71.0454 99.0968 71.0454 89.6526H65.4338C65.4338 97.2097 61.24 104.865 54.9978 108.702C48.1472 112.913 39.4615 112.862 31.0611 112.812C30.1621 112.807 29.27 112.802 28.3871 112.802V118.434C29.2592 118.434 30.1402 118.439 31.028 118.444C31.9207 118.449 32.8251 118.455 33.7391 118.455Z" fill="#002837"/>
<path d="M65.4202 128.427H28.3871V133.877H65.4202V128.427Z" fill="#002837"/>
<path d="M53.898 78.7111V84.1356C53.898 97.8603 46.2427 100.672 34.7479 100.672H28.4097V106.395H34.7479C40.8943 106.395 59.5996 106.395 59.5996 84.1356V78.7111H53.898Z" fill="#649BD2"/>
<path d="M143.725 116.851H149.385L154.198 129.709H154.672L159.587 116.851H165.247L156.333 138.61C155.35 140.855 154.672 141.399 152.164 141.399H146.606V137.113H151.148C152.232 137.113 152.497 135.742 152.801 134.79C152.875 134.558 153.079 133.859 153.079 133.859H151.114L143.725 116.851Z" fill="#002837"/>
<path d="M28.2816 159.637V149.119H36.5241V150.375H29.6891V153.576H36.3682V154.833H29.6891V158.381H36.5872V159.636L28.2816 159.637Z" fill="#002837"/>
<path d="M38.312 159.636V151.788H39.532L39.579 153.075H39.704C40.361 152.148 41.409 151.599 42.754 151.599C45.147 151.599 46.5235 152.918 46.5235 155.288V159.636H45.2094V155.398C45.2094 153.656 44.412 152.762 42.5665 152.762C40.7829 152.762 39.626 153.954 39.626 155.696V159.636L38.312 159.636Z" fill="#002837"/>
<path d="M56.6466 159.636H55.4266L55.3642 158.35H55.2392C54.5667 159.259 53.5187 159.825 52.1422 159.825C49.8277 159.825 48.0287 158.114 48.0287 155.712C48.0287 153.311 49.7183 151.599 52.1422 151.599C53.5187 151.599 54.5667 152.164 55.2082 153.075H55.3332V149.119H56.6466L56.6466 159.636ZM52.3927 152.762C50.5157 152.762 49.3743 153.907 49.3743 155.712C49.3743 157.518 50.5157 158.663 52.3927 158.663C54.1912 158.663 55.3802 157.438 55.3802 155.712C55.3802 153.954 54.1912 152.762 52.3927 152.762Z" fill="#002837"/>
<path d="M59.9045 159.637H58.5911V149.119H59.9045V159.637Z" fill="#002837"/>
<path d="M65.8177 151.599C68.5707 151.599 70.2442 153.342 70.1186 155.978H62.8617C62.9712 157.612 64.1126 158.663 65.8492 158.663C67.2876 158.695 68.3202 157.972 68.7266 156.827H70.0561C69.6027 158.679 67.9917 159.856 65.8492 159.825C63.2837 159.825 61.5007 158.145 61.5007 155.712C61.5007 153.248 63.2212 151.614 65.8177 151.599ZM68.6957 154.911C68.4922 153.547 67.4132 152.762 65.8177 152.762C64.2537 152.762 63.1748 153.561 62.9242 154.911H68.6957Z" fill="#002837"/>
<path d="M72.6106 156.435C72.7981 157.987 73.7211 158.695 75.488 158.695C77.0835 158.695 77.7715 158.287 77.7715 157.486C77.7715 156.937 77.4591 156.639 76.5521 156.465L73.8306 155.978C72.3446 155.712 71.5626 155.006 71.5471 153.876C71.5471 152.446 72.8921 151.584 75.0661 151.584C77.4275 151.584 78.882 152.777 79.023 154.833H77.709C77.584 153.42 76.708 152.714 75.0661 152.714C73.5801 152.714 72.8606 153.122 72.8606 153.876C72.8606 154.426 73.1736 154.708 74.0496 154.88L76.7705 155.367C78.2881 155.633 79.0855 156.356 79.0855 157.486C79.0855 158.993 77.756 159.825 75.488 159.825C72.9855 159.825 71.531 158.648 71.2966 156.435H72.6106Z" fill="#002837"/>
<path d="M81.5769 156.435C81.7643 157.987 82.6873 158.695 84.4543 158.695C86.0498 158.695 86.7377 158.287 86.7377 157.486C86.7377 156.937 86.4253 156.639 85.5184 156.465L82.7969 155.978C81.3108 155.712 80.5289 155.006 80.5134 153.876C80.5134 152.446 81.8584 151.584 84.0323 151.584C86.3938 151.584 87.8482 152.777 87.9893 154.833H86.6752C86.5503 153.42 85.6743 152.714 84.0323 152.714C82.5463 152.714 81.8268 153.122 81.8268 153.876C81.8268 154.426 82.1398 154.708 83.0159 154.88L85.7367 155.367C87.2543 155.633 88.0518 156.356 88.0518 157.486C88.0518 158.993 86.7223 159.825 84.4543 159.825C81.9518 159.825 80.4973 158.648 80.2628 156.435H81.5769Z" fill="#002837"/>
<path d="M90.965 159.637H89.6516V149.119H90.965V159.637Z" fill="#002837"/>
<path d="M92.1244 151.788H93.5944L96.7539 158.506H96.9104L99.9134 151.788H101.352L96.8163 161.551C96.4878 162.242 96.1748 162.463 95.3774 162.463H93.2504V161.301H95.2369C95.5648 161.301 95.6904 161.191 95.7999 160.939L96.3938 159.636H95.9719L92.1244 151.788Z" fill="#002837"/>
<path d="M110.242 151.599C112.995 151.599 114.668 153.342 114.543 155.978H107.286C107.395 157.612 108.537 158.663 110.273 158.663C111.712 158.695 112.744 157.972 113.151 156.827H114.48C114.027 158.679 112.416 159.856 110.273 159.825C107.709 159.825 105.925 158.145 105.925 155.712C105.925 153.248 107.645 151.614 110.242 151.599ZM113.12 154.911C112.916 153.547 111.837 152.762 110.242 152.762C108.678 152.762 107.599 153.561 107.348 154.911H113.12Z" fill="#002837"/>
<path d="M116.111 159.636V151.788H117.331L117.378 153.091H117.503C118.098 152.18 118.864 151.599 120.24 151.599C121.648 151.599 122.602 152.164 123.056 153.263H123.181C123.65 152.399 124.604 151.599 126.168 151.599C128.139 151.599 129.281 152.682 129.281 154.801V159.636H127.967V155.116C127.967 153.656 127.56 152.762 125.871 152.762C124.182 152.762 123.353 154.079 123.353 155.869V159.636H122.039V155.116C122.039 153.656 121.632 152.762 119.943 152.762C118.254 152.762 117.425 154.079 117.425 155.869V159.636L116.111 159.636Z" fill="#002837"/>
<path d="M131.133 162.463V151.788H132.353L132.415 153.075H132.54C133.213 152.164 134.261 151.599 135.637 151.599C138.061 151.599 139.751 153.311 139.751 155.712C139.751 158.114 138.061 159.825 135.637 159.825C134.261 159.825 133.213 159.259 132.571 158.35H132.446V162.463L131.133 162.463ZM135.387 158.663C137.264 158.663 138.405 157.518 138.405 155.712C138.405 153.892 137.248 152.762 135.387 152.762C133.588 152.762 132.399 153.986 132.399 155.712C132.399 157.438 133.588 158.663 135.387 158.663Z" fill="#002837"/>
<path d="M145.401 151.599C147.998 151.599 149.796 153.278 149.796 155.712C149.796 158.145 147.998 159.825 145.401 159.825C142.805 159.825 141.006 158.145 141.006 155.712C141.006 153.278 142.805 151.599 145.401 151.599ZM145.401 158.663C147.278 158.663 148.451 157.533 148.451 155.712C148.451 153.892 147.278 152.762 145.401 152.762C143.525 152.762 142.352 153.892 142.352 155.712C142.352 157.533 143.525 158.663 145.401 158.663Z" fill="#002837"/>
<path d="M150.348 151.788H151.756L153.992 158.506H154.117L156.448 151.788H157.981L160.311 158.506H160.436L162.673 151.788H164.08L161.312 159.636H159.451L157.214 153.201L154.978 159.636H153.116L150.348 151.788Z" fill="#002837"/>
<path d="M168.952 151.599C171.705 151.599 173.378 153.342 173.253 155.978H165.996C166.105 157.612 167.247 158.663 168.983 158.663C170.422 158.695 171.454 157.972 171.861 156.827H173.19C172.737 158.679 171.126 159.856 168.983 159.825C166.418 159.825 164.635 158.145 164.635 155.712C164.635 153.248 166.355 151.614 168.952 151.599ZM171.83 154.911C171.626 153.547 170.547 152.762 168.952 152.762C167.388 152.762 166.309 153.561 166.058 154.911H171.83Z" fill="#002837"/>
<path d="M174.822 159.637V151.788H176.042L176.089 153.027H176.214C176.761 152.164 177.668 151.661 178.872 151.661C180.922 151.661 182.172 152.902 182.172 155.069V155.351H180.859V155.1C180.859 153.703 180.312 152.824 178.638 152.824C176.995 152.824 176.136 153.954 176.136 155.665V159.637H174.822Z" fill="#002837"/>
<path d="M185.086 159.636H183.772V151.788H185.086V159.636Z" fill="#002837"/>
<path d="M186.995 159.636V151.788H188.215L188.262 153.075H188.387C189.044 152.148 190.092 151.599 191.437 151.599C193.83 151.599 195.206 152.918 195.206 155.288V159.636H193.892V155.398C193.892 153.656 193.095 152.762 191.249 152.762C189.466 152.762 188.309 153.954 188.309 155.696V159.636L186.995 159.636Z" fill="#002837"/>
<path d="M200.825 151.599C202.202 151.599 203.25 152.164 203.922 153.075H204.047L204.11 151.788H205.33V158.961C205.33 161.253 203.735 162.65 201.138 162.65C198.964 162.65 197.447 161.551 196.931 159.699H198.26C198.698 160.861 199.699 161.489 201.138 161.489C203.031 161.489 204.016 160.641 204.016 159.024V158.098H203.891C203.218 159.008 202.202 159.574 200.825 159.574C198.464 159.574 196.712 157.925 196.712 155.586C196.712 153.248 198.464 151.599 200.825 151.599ZM201.044 158.412C202.906 158.412 204.063 157.125 204.063 155.586C204.063 154.048 202.906 152.762 201.044 152.762C199.246 152.762 198.057 153.892 198.057 155.586C198.057 157.282 199.246 158.412 201.044 158.412Z" fill="#002837"/>
<path d="M27.4687 170.227H28.9387L32.0827 176.945H32.2386L35.3827 170.227H36.8526L33.0051 178.075H31.3162L27.4687 170.227Z" fill="#002837"/>
<path d="M39.3285 178.075H38.015V170.227H39.3285V178.075Z" fill="#002837"/>
<path d="M49.5432 178.075H48.3232L48.2607 176.789H48.1357C47.4633 177.698 46.4152 178.264 45.0387 178.264C42.7243 178.264 40.9252 176.553 40.9252 174.151C40.9252 171.749 42.6148 170.038 45.0387 170.038C46.4152 170.038 47.4632 170.603 48.1048 171.513H48.2298V167.558H49.5432L49.5432 178.075ZM45.2893 171.2C43.4123 171.2 42.2708 172.345 42.2708 174.151C42.2708 175.957 43.4123 177.102 45.2893 177.102C47.0877 177.102 48.2768 175.877 48.2768 174.151C48.2768 172.393 47.0877 171.2 45.2893 171.2Z" fill="#002837"/>
<path d="M55.4601 170.038C58.2131 170.038 59.8866 171.78 59.761 174.417H52.5041C52.6136 176.051 53.755 177.102 55.4916 177.102C56.93 177.134 57.9625 176.411 58.369 175.266H59.6985C59.245 177.118 57.634 178.295 55.4916 178.264C52.926 178.264 51.143 176.584 51.143 174.151C51.143 171.687 52.8635 170.053 55.4601 170.038ZM58.3381 173.35C58.1345 171.985 57.0556 171.2 55.4601 171.2C53.8961 171.2 52.8171 172 52.5666 173.35H58.3381Z" fill="#002837"/>
<path d="M65.4112 170.038C68.0078 170.038 69.8068 171.717 69.8068 174.151C69.8068 176.584 68.0078 178.264 65.4112 178.264C62.8153 178.264 61.0163 176.584 61.0163 174.151C61.0163 171.717 62.8153 170.038 65.4112 170.038ZM65.4112 177.102C67.2883 177.102 68.4612 175.972 68.4612 174.151C68.4612 172.331 67.2883 171.2 65.4112 171.2C63.5348 171.2 62.3619 172.331 62.3619 174.151C62.3619 175.972 63.5348 177.102 65.4112 177.102Z" fill="#002837"/>
<path d="M74.38 170.227H75.8499L78.994 176.945H79.1499L82.2939 170.227H83.7639L79.9164 178.075H78.2275L74.38 170.227Z" fill="#002837"/>
<path d="M86.2397 178.075H84.9263V170.227H86.2397V178.075Z" fill="#002837"/>
<path d="M89.0726 174.874C89.26 176.426 90.183 177.134 91.95 177.134C93.5455 177.134 94.2334 176.725 94.2334 175.924C94.2334 175.376 93.921 175.077 93.0141 174.904L90.2926 174.417C88.8065 174.151 88.0246 173.444 88.0091 172.314C88.0091 170.885 89.354 170.023 91.528 170.023C93.8895 170.023 95.3439 171.215 95.485 173.272H94.171C94.046 171.859 93.1699 171.153 91.528 171.153C90.042 171.153 89.3225 171.561 89.3225 172.314C89.3225 172.865 89.6355 173.146 90.5116 173.319L93.2324 173.806C94.75 174.072 95.5475 174.794 95.5475 175.924C95.5475 177.432 94.218 178.264 91.95 178.264C89.4475 178.264 87.993 177.087 87.7585 174.874H89.0726Z" fill="#002837"/>
<path d="M98.4608 178.075H97.1473V170.227H98.4608V178.075Z" fill="#002837"/>
<path d="M104.452 170.038C107.049 170.038 108.848 171.717 108.848 174.151C108.848 176.584 107.049 178.264 104.452 178.264C101.857 178.264 100.057 176.584 100.057 174.151C100.057 171.717 101.857 170.038 104.452 170.038ZM104.452 177.102C106.329 177.102 107.502 175.972 107.502 174.151C107.502 172.331 106.329 171.2 104.452 171.2C102.576 171.2 101.403 172.331 101.403 174.151C101.403 175.972 102.576 177.102 104.452 177.102Z" fill="#002837"/>
<path d="M110.416 178.075V170.227H111.636L111.683 171.513H111.808C112.465 170.587 113.513 170.038 114.858 170.038C117.251 170.038 118.627 171.357 118.627 173.726V178.075H117.313V173.837C117.313 172.095 116.516 171.2 114.67 171.2C112.887 171.2 111.73 172.393 111.73 174.135V178.075L110.416 178.075Z" fill="#002837"/>
<path d="M121.369 174.874C121.556 176.426 122.479 177.134 124.246 177.134C125.841 177.134 126.529 176.725 126.529 175.924C126.529 175.376 126.217 175.077 125.31 174.904L122.589 174.417C121.103 174.151 120.321 173.444 120.305 172.314C120.305 170.885 121.65 170.023 123.824 170.023C126.185 170.023 127.64 171.215 127.781 173.272H126.467C126.342 171.859 125.466 171.153 123.824 171.153C122.338 171.153 121.618 171.561 121.618 172.314C121.618 172.865 121.932 173.146 122.808 173.319L125.528 173.806C127.046 174.072 127.843 174.794 127.843 175.924C127.843 177.432 126.514 178.264 124.246 178.264C121.743 178.264 120.289 177.087 120.055 174.874H121.369Z" fill="#002837"/>
</g>
</g>
<defs>
<clipPath id="clip0_1_11">
<rect width="256" height="256" fill="white"/>
</clipPath>
<clipPath id="clip1_1_11">
<rect width="255" height="155" fill="white" transform="translate(1 51)"/>
</clipPath>
</defs>
</svg>
